<?xml version="1.0" encoding="UTF-8"?>
<!-- Generated by Pixelmator Pro 3.6 -->
<svg width="7559" height="4252" viewBox="0 0 7559 4252" xmlns="http://www.w3.org/2000/svg">
    <g id="g1">
        <path id="path1" fill="#a8ddff" fill-rule="evenodd" stroke="none" d="M 3430.048828 4252 C 2221.957275 4252 1242.599609 3300.153809 1242.599609 2126 C 1242.599609 951.846436 2221.957275 0 3430.048828 0 C 4638.141113 0 5617.5 951.846436 5617.5 2126 C 5617.5 3300.153809 4638.141113 4252 3430.048828 4252 Z M 3807.673828 3402.623047 C 4025.071533 3403.12085 4266.288574 3330.81958 4504.097656 3161.751953 C 4972.397461 2828.818848 5178.006836 2314.137207 4963.333984 2012.181641 C 4748.661621 1710.226318 4194.999023 1735.338135 3726.699219 2068.271484 C 3258.39917 2401.20459 2512.389893 2600.432861 3267.464844 3217.84375 C 3408.629639 3333.271973 3596.965332 3402.140625 3807.673828 3402.623047 Z M 2656.802734 2230.976563 C 2951.402344 2230.976563 3190.224609 2009.733154 3190.224609 1736.816406 C 3190.224609 1463.899414 2951.402344 1242.65625 2656.802734 1242.65625 C 2362.203369 1242.65625 2123.382813 1463.899414 2123.382813 1736.816406 C 2123.382813 2009.733154 2362.203369 2230.976563 2656.802734 2230.976563 Z M 4210.123047 1606.234375 C 4504.722656 1606.234375 4743.542969 1384.991455 4743.542969 1112.074219 C 4743.542969 839.156982 4504.722656 617.914063 4210.123047 617.914063 C 3915.523438 617.914063 3676.703125 839.156982 3676.703125 1112.074219 C 3676.703125 1384.991455 3915.523438 1606.234375 4210.123047 1606.234375 Z"/>
        <g id="g2">
            <path id="path2" fill="#a8ddff" fill-rule="evenodd" stroke="none" d="M 1643.731689 3512.039307 C 1643.731689 3224.981201 1416.374756 2992.274414 1135.915527 2992.274414 C 855.456482 2992.274414 628.099426 3224.981201 628.099426 3512.039307 C 628.099426 3799.097412 855.456482 4031.804199 1135.915527 4031.804199 C 1416.374756 4031.804199 1643.731689 3799.097412 1643.731689 3512.039307 Z"/>
            <path id="path3" fill="#a8ddff" fill-rule="evenodd" stroke="none" d="M 739.550781 2893.107422 L 542.679688 2421.072266 L 413.757813 1784.058594 L 778.992188 2322.513672 L 974.240234 2790.65625 C 889.346863 2810.505859 810.145325 2845.649902 739.550781 2893.107422 Z"/>
        </g>
        <g id="-">
            <path id="path4" fill="#a8ddff" fill-rule="evenodd" stroke="none" d="M 6633.131836 2436.664063 C 6633.131836 2149.605957 6405.774902 1916.89917 6125.315918 1916.89917 C 5844.856934 1916.89917 5617.499512 2149.605957 5617.499512 2436.664063 C 5617.499512 2723.722168 5844.856934 2956.428711 6125.315918 2956.428711 C 6405.774902 2956.428711 6633.131836 2723.722168 6633.131836 2436.664063 Z"/>
            <path id="path5" fill="#a8ddff" fill-rule="evenodd" stroke="none" d="M 6846.324219 2382.054688 C 6819.015625 1998.88623 6506.64502 1696.703125 6125.316406 1696.703125 C 6072.099121 1696.703125 6020.225098 1702.590088 5970.28125 1713.759766 L 5882.777344 864.919922 L 6981.347656 751.673828 L 7146.230469 2351.138672 L 6846.324219 2382.054688 Z"/>
        </g>
    </g>
</svg>
